<svg xmlns="http://www.w3.org/2000/svg" viewBox="0 0 128 128"><circle cx="64" cy="64" r="55" fill="#f8f1df" stroke="#d8b45c" stroke-width="8"/><g fill="#f7f4ea" stroke="#c7b78d" stroke-width="3"><ellipse cx="64" cy="28" rx="17" ry="28"/><ellipse cx="64" cy="100" rx="17" ry="28"/><ellipse cx="28" cy="64" rx="28" ry="17"/><ellipse cx="100" cy="64" rx="28" ry="17"/><ellipse cx="38" cy="38" rx="18" ry="26" transform="rotate(-45 38 38)"/><ellipse cx="90" cy="90" rx="18" ry="26" transform="rotate(-45 90 90)"/><ellipse cx="90" cy="38" rx="18" ry="26" transform="rotate(45 90 38)"/><ellipse cx="38" cy="90" rx="18" ry="26" transform="rotate(45 38 90)"/></g><path d="M64 39 C89 24 108 52 90 76 L64 102 L38 76 C20 52 39 24 64 39Z" fill="#d82624" stroke="#9d1515" stroke-width="5"/><path d="M64 48 V82 M50 62 H78" stroke="#111" stroke-width="8" stroke-linecap="round"/></svg>
